<svg xmlns="http://www.w3.org/2000/svg" width="24" height="24" viewBox="0 0 24 24">
    <defs><style>.b{fill:#666f84;}</style></defs>
    <g transform="translate(-294 -707)">
        <g transform="translate(296.001 709)">
            <path class="b" d="M-2485.7-689h0a2.058,2.058,0,0,1-1.437-.577,1.977,1.977,0,0,1-.6-1.414,1.937,1.937,0,0,0-.274-1,2.075,2.075,0,0,0-1.773-.989,2.1,2.1,0,0,0-1.01.26,2.086,2.086,0,0,1-1.024.27,2.064,2.064,0,0,1-1.768-.99l-.639-1.138a1.925,1.925,0,0,1-.2-1.507,1.979,1.979,0,0,1,.952-1.205,1.9,1.9,0,0,0,.739-.72,1.933,1.933,0,0,0,.212-1.494,1.986,1.986,0,0,0-.951-1.225,1.984,1.984,0,0,1-.952-1.217,1.936,1.936,0,0,1,.2-1.494l.639-1.12a2.038,2.038,0,0,1,1.25-.949,2.087,2.087,0,0,1,.527-.068,2.077,2.077,0,0,1,1.043.28,2.082,2.082,0,0,0,1.022.268,2.079,2.079,0,0,0,1.02-.267,1.978,1.978,0,0,0,1.015-1.725,2.024,2.024,0,0,1,2.045-1.983h1.341a2.077,2.077,0,0,1,1.443.584,1.974,1.974,0,0,1,.593,1.408,1.994,1.994,0,0,0,.273,1,2.025,2.025,0,0,0,1.241.928,2.091,2.091,0,0,0,.529.068,2.094,2.094,0,0,0,1.023-.267,2.081,2.081,0,0,1,1.02-.267,2.088,2.088,0,0,1,.528.068,2.02,2.02,0,0,1,1.237.927l.666,1.165a1.926,1.926,0,0,1,.2,1.508,1.979,1.979,0,0,1-.952,1.2,1.984,1.984,0,0,0-.739.728,1.944,1.944,0,0,0,.739,2.667,1.98,1.98,0,0,1,.943,1.208,1.925,1.925,0,0,1-.194,1.477l-.676,1.138a2.062,2.062,0,0,1-1.77.992,2.086,2.086,0,0,1-1.013-.263,2.051,2.051,0,0,0-1.012-.266h-.01a2.078,2.078,0,0,0-1.449.589,1.964,1.964,0,0,0-.586,1.419,2.021,2.021,0,0,1-2.045,1.991h-1.362Zm.7-12.5a2.5,2.5,0,0,0-2.5,2.5,2.5,2.5,0,0,0,2.5,2.5,2.5,2.5,0,0,0,2.5-2.5A2.5,2.5,0,0,0-2485-701.5Z" transform="translate(2494.5 709)"/></g></g></svg>