<svg xmlns="http://www.w3.org/2000/svg" width="24" height="24" viewBox="0 0 24 24">
    <defs><style>.b{fill:#ffffff;}</style>
    </defs>
    <g transform="translate(-0.087)">
    <g transform="translate(2.087 -36.374)">
        <path class="b" d="M18.847,47.372l-14.428-.3L7.785,43.7a.884.884,0,0,0,0-1.243l-.524-.524a.876.876,0,0,0-1.237,0L.255,47.7a.882.882,0,0,0,0,1.241l5.769,5.769a.877.877,0,0,0,1.237,0l.524-.524a.867.867,0,0,0,.255-.618.841.841,0,0,0-.255-.607l-3.4-3.392,14.478.308a.907.907,0,0,0,.887-.9v-.741A.889.889,0,0,0,18.847,47.372Z" transform="translate(0 0)"/></g></g></svg>