<?xml version="1.0" encoding="UTF-8"?>
<svg viewBox="0 0 30 30" xmlns="http://www.w3.org/2000/svg">
    <defs>
        <style>.a{fill:#fbc02d;}.b{fill:#171d2b;}</style>
    </defs>
    <g transform="translate(-166 -608)">
        <path class="a" transform="translate(166 608)" d="M15,0A15,15,0,1,1,0,15,15,15,0,0,1,15,0Z"/>
        <path class="b" transform="translate(2416 773)" d="M-2239.5-142a.5.5,0,0,1-.5-.5v-.961a.5.5,0,0,1,.5-.5h8.806a.5.5,0,0,1,.5.5v.961a.5.5,0,0,1-.5.5Zm4.4-3.194a.635.635,0,0,1-.457-.188l-4.257-4.257a.64.64,0,0,1-.188-.456.641.641,0,0,1,.189-.456l.387-.386a.642.642,0,0,1,.457-.188.646.646,0,0,1,.459.188l2.49,2.483v-7.9l0,.019a.656.656,0,0,1,.638-.663h.547a.669.669,0,0,1,.662.654v7.918l2.5-2.511a.619.619,0,0,1,.447-.188.64.64,0,0,1,.456.188l.386.386a.641.641,0,0,1,.189.456.641.641,0,0,1-.189.456l-4.257,4.257a.636.636,0,0,1-.455.188Z"/>
    </g>
</svg>
