<svg xmlns="http://www.w3.org/2000/svg" width="24" height="24" viewBox="0 0 24 24">
    <defs><style>.b{fill:#ffffff;}</style>
    </defs>
    <path class="b" d="M6.286,17.785v-2.9A1.344,1.344,0,0,1,7.634,13.55h2.723a1.354,1.354,0,0,1,.954.392,1.334,1.334,0,0,1,.4.947v2.9a1.149,1.149,0,0,0,.337.821,1.166,1.166,0,0,0,.825.341h1.858A3.278,3.278,0,0,0,17.04,18a3.23,3.23,0,0,0,.96-2.3V7.453a2.343,2.343,0,0,0-.848-1.8L10.832.64A2.934,2.934,0,0,0,7.091.708L.916,5.651A2.344,2.344,0,0,0,0,7.453V15.7a3.262,3.262,0,0,0,3.274,3.25H5.09A1.166,1.166,0,0,0,6.26,17.794Z" transform="translate(3 2.5)"/></svg>