<svg xmlns="http://www.w3.org/2000/svg" width="15" height="14.999" viewBox="0 0 15 14.999"><defs><style>.a{fill:#fff;}</style></defs><path class="a" d="M113,58h-9a3,3,0,0,1-3-3V46a3,3,0,0,1,3-3h9a3,3,0,0,1,3,3v9A3,3,0,0,1,113,58Zm-5.731-2.408a.684.684,0,0,1,.512.23l.239.268a.687.687,0,0,0,1.035-.006l.233-.273a.691.691,0,0,1,.785-.188l.33.137a.682.682,0,0,0,.263.053.7.7,0,0,0,.667-.514l.094-.347a.694.694,0,0,1,.627-.511l.356-.021a.687.687,0,0,0,.5-.263.7.7,0,0,0,.137-.559l-.064-.354a.693.693,0,0,1,.344-.733l.312-.176a.681.681,0,0,0,.34-.448.7.7,0,0,0-.115-.566l-.211-.292a.7.7,0,0,1-.007-.812l.206-.294a.7.7,0,0,0-.239-1.016l-.314-.17a.7.7,0,0,1-.355-.73l.06-.356a.7.7,0,0,0-.147-.557.685.685,0,0,0-.506-.252L112,46.826a.692.692,0,0,1-.634-.5l-.1-.347a.693.693,0,0,0-.662-.5.673.673,0,0,0-.273.058l-.329.144a.684.684,0,0,1-.787-.175l-.239-.268a.686.686,0,0,0-1.034.006l-.234.273a.685.685,0,0,1-.784.187l-.331-.136a.679.679,0,0,0-.263-.053.7.7,0,0,0-.667.514l-.1.347a.693.693,0,0,1-.626.513l-.356.021a.686.686,0,0,0-.5.262.7.7,0,0,0-.137.557l.066.354a.7.7,0,0,1-.346.733l-.312.176a.7.7,0,0,0-.222,1.019l.211.291a.7.7,0,0,1,.007.812l-.211.3a.7.7,0,0,0,.238,1.016l.314.172a.692.692,0,0,1,.355.728l-.059.352a.7.7,0,0,0,.147.556.687.687,0,0,0,.506.254L105,54.5a.69.69,0,0,1,.634.5l.1.347a.694.694,0,0,0,.661.5.675.675,0,0,0,.274-.058l.329-.143A.687.687,0,0,1,107.27,55.592Zm1.23-1.487a3.479,3.479,0,1,1,3.451-3.48A3.469,3.469,0,0,1,108.5,54.105Zm0-2.158h0l1.1.685a.263.263,0,0,0,.143.043.275.275,0,0,0,.214-.106.27.27,0,0,0,.05-.235l-.31-1.265.987-.84a.272.272,0,0,0-.152-.481l-1.291-.1-.488-1.208a.268.268,0,0,0-.252-.17.264.264,0,0,0-.25.17l-.489,1.208-1.291.1a.273.273,0,0,0-.155.481l.988.84-.311,1.265a.27.27,0,0,0,.05.235.275.275,0,0,0,.214.105.269.269,0,0,0,.144-.043l1.1-.685Z" transform="translate(-101 -43)"/></svg>