<svg xmlns="http://www.w3.org/2000/svg" width="15" height="14.999" viewBox="0 0 15 14.999"><defs><style>.a{fill:#fff;}</style></defs><path class="a" d="M113,58h-9a3,3,0,0,1-3-3V46a3,3,0,0,1,3-3h9a3,3,0,0,1,3,3v9A3,3,0,0,1,113,58Zm-4.177-13a.22.22,0,0,0-.058.008,2.458,2.458,0,0,0-.33.111,3.052,3.052,0,0,0-.676.39,3.225,3.225,0,0,0-.723.773,3.392,3.392,0,0,0-.508,1.254,4,4,0,0,0,.03,1.575,4.766,4.766,0,0,0,.611,1.486,5.108,5.108,0,0,0,.446.621c.03.038.1.116.135.162l.029.034.048.054.07.082.012.014c.022.027.041.049.062.071.24.288.4.482.523.652.146.194.274.383.392.576a3.261,3.261,0,0,1,.284.567,2.671,2.671,0,0,1,.148.661,4.065,4.065,0,0,1,0,.7c-.019.229-.054.437-.089.627-.022.114-.046.221-.064.3a.225.225,0,0,0,.059.208.228.228,0,0,0,.164.069.35.35,0,0,0,.043,0,2.454,2.454,0,0,0,.311-.083,3.032,3.032,0,0,0,.695-.333,3.228,3.228,0,0,0,.78-.7,3.516,3.516,0,0,0,.62-1.179,3.974,3.974,0,0,0,.144-1.544,4.85,4.85,0,0,0-.424-1.537,5.863,5.863,0,0,0-.8-1.285c-.091-.111-.185-.22-.235-.272l-.111-.121c-.028-.032-.05-.056-.073-.078l-.033-.033-.024-.025c-.028-.029-.057-.059-.081-.088a.035.035,0,0,1-.007-.009l-.049-.051a.948.948,0,0,1-.075-.081l-.008-.009c-.168-.185-.311-.355-.437-.519a3.417,3.417,0,0,1-.332-.513,2.374,2.374,0,0,1-.219-.621,3.763,3.763,0,0,1-.076-.7,6.025,6.025,0,0,1,.021-.634c.01-.113.021-.223.034-.327a.227.227,0,0,0-.224-.254Zm-2.689,6.044a.227.227,0,0,0-.1.022,1.5,1.5,0,0,0-.246.15,1.465,1.465,0,0,0-.329.353,1.522,1.522,0,0,0-.231.572,1.828,1.828,0,0,0,.013.719,2.206,2.206,0,0,0,.279.68,2.329,2.329,0,0,0,.2.281c.012.016.034.041.052.062l.026.031.02.023.026.03.013.015a.31.31,0,0,0,.024.029l0,0c.051.06.15.179.238.3.068.091.126.177.179.263a1.523,1.523,0,0,1,.129.257,1.222,1.222,0,0,1,.067.3,1.778,1.778,0,0,1,0,.319c-.006.073-.016.149-.031.232a.226.226,0,0,0,.082.215.223.223,0,0,0,.141.05.238.238,0,0,0,.086-.016,1.433,1.433,0,0,0,.23-.121,1.466,1.466,0,0,0,.356-.32,1.6,1.6,0,0,0,.284-.537,1.864,1.864,0,0,0,.066-.706,2.258,2.258,0,0,0-.194-.7,2.707,2.707,0,0,0-.367-.587c-.04-.048-.084-.1-.106-.122L107,52.783l-.034-.037-.014-.014a.622.622,0,0,1-.048-.05l-.008-.009-.019-.021a.3.3,0,0,1-.033-.035l0,0,0,0c-.077-.085-.141-.161-.2-.233a1.619,1.619,0,0,1-.153-.235,1.088,1.088,0,0,1-.1-.284,1.8,1.8,0,0,1-.035-.318c0-.09,0-.176.005-.238v-.014a.223.223,0,0,0-.1-.2A.228.228,0,0,0,106.134,51.044Z" transform="translate(-101 -43)"/></svg>