<svg xmlns="http://www.w3.org/2000/svg" width="24" height="24" viewBox="0 0 24 24">
    <defs><style>.b{fill:#ffffff}.c{fill:#ffffff;}</style></defs>
    <path class="b" d="M14.063,20H5.938a6.014,6.014,0,0,1-4.372-1.568A6,6,0,0,1,0,14.071V5.949A6.03,6.03,0,0,1,1.567,1.575,6,6,0,0,1,5.938,0h8.85a5.271,5.271,0,0,0-.065.823,4.47,4.47,0,0,0,4.464,4.467A5.193,5.193,0,0,0,20,5.214v8.857a6,6,0,0,1-1.567,4.36A6.013,6.013,0,0,1,14.063,20ZM8,7.877a.906.906,0,0,0-.1.005.857.857,0,0,0-.55.328L4.1,12.437l-.067.1a.819.819,0,0,0,.231,1.042.916.916,0,0,0,.506.165H4.8a.787.787,0,0,0,.62-.33l2.76-3.547,3.133,2.35.1.064a.824.824,0,0,0,1.045-.23l3.177-4.093-.044.022a.822.822,0,0,0,.087-.824.809.809,0,0,0-.669-.482.822.822,0,0,0-.092-.005.846.846,0,0,0-.679.345l-2.66,3.436L8.532,8.058A.864.864,0,0,0,8,7.877Z" transform="translate(2 2)"/>
    <path class="c" d="M3,0A3,3,0,1,0,6,3,3,3,0,0,0,3,0" transform="translate(18 0)"/></svg>