<svg xmlns="http://www.w3.org/2000/svg" width="24" height="24" viewBox="0 0 24 24">
    <defs>
        <style>.b{fill:#ffffff;}</style>
    </defs>
    <path class="b" d="M18.587,9.3a1.363,1.363,0,0,0-.756-2.324l-4.6-.668a.6.6,0,0,1-.453-.329L10.721,1.806a1.363,1.363,0,0,0-2.444,0L6.221,5.975a.6.6,0,0,1-.453.329l-4.6.668A1.363,1.363,0,0,0,.412,9.3L3.74,12.541a.6.6,0,0,1,.173.533l-.785,4.581a1.334,1.334,0,0,0,.3,1.1,1.377,1.377,0,0,0,1.68.331l4.114-2.163a.616.616,0,0,1,.56,0l4.115,2.163a1.348,1.348,0,0,0,.634.159,1.366,1.366,0,0,0,1.045-.49,1.333,1.333,0,0,0,.3-1.1l-.786-4.581a.6.6,0,0,1,.173-.533Z" transform="translate(2.218 1.209)"/></svg>